<svg viewBox="0 0 1200 630" width="1200" height="630" xmlns="http://www.w3.org/2000/svg">
  <defs>
    <linearGradient id="bg" x1="0%" y1="0%" x2="100%" y2="100%">
      <stop offset="0%" style="stop-color:#f8fafc"/>
      <stop offset="100%" style="stop-color:#e2e8f0"/>
    </linearGradient>
  </defs>
  
  <!-- Background -->
  <rect width="1200" height="630" fill="url(#bg)"/>
  
  <!-- Icon centered -->
  <g transform="translate(525, 140) scale(3)">
    <path clip-rule="evenodd" d="m19 12.5c-4.1421 0-7.5-3.35786-7.5-7.5h-5c0 6.9036 5.5964 12.5 12.5 12.5s12.5-5.5964 12.5-12.5h-5c0 4.14214-3.3579 7.5-7.5 7.5zm-7.5 30.5c0-4.1421 3.3579-7.5 7.5-7.5s7.5 3.3579 7.5 7.5h5c0-6.9036-5.5964-12.5-12.5-12.5s-12.5 5.5964-12.5 12.5zm-4-19c0-4.1421-3.35786-7.5-7.5-7.5v-5c6.90356 0 12.5 5.5964 12.5 12.5s-5.59644 12.5-12.5 12.5v-5c4.14214 0 7.5-3.3579 7.5-7.5zm23 0c0-4.1421 3.3579-7.5 7.5-7.5v-5c-6.9036 0-12.5 5.5964-12.5 12.5s5.5964 12.5 12.5 12.5v-5c-4.1421 0-7.5-3.3579-7.5-7.5z" fill="#0a0d12" fill-rule="evenodd"/>
  </g>
  
  <!-- Text -->
  <text x="600" y="480" font-family="system-ui, -apple-system, sans-serif" font-size="72" font-weight="700" fill="#0a0d12" text-anchor="middle">conlang.app</text>
  <text x="600" y="540" font-family="system-ui, -apple-system, sans-serif" font-size="32" fill="#64748b" text-anchor="middle">Build constructed languages</text>
</svg>

